<?xml version="1.0" encoding="utf-8"?>
<!-- Generator: Adobe Illustrator 23.0.3, SVG Export Plug-In . SVG Version: 6.00 Build 0)  -->
<svg version="1.1" id="Ebene_1" xmlns="http://www.w3.org/2000/svg" xmlns:xlink="http://www.w3.org/1999/xlink" x="0px" y="0px"
	 viewBox="0 0 507.3 114.9" style="enable-background:new 0 0 507.3 114.9;" xml:space="preserve">
<g>
	<g>
		<path d="M311.2,25.5c-0.4-4-0.1-10.3,0-14.2c0.6-0.3,1-0.4,1.6-0.5c6.4-0.3,15.2-0.3,17.3,0c0.1,0.2,0.3,0.4,0.3,0.6
			c0,3.4-0.1,9.7-0.1,13c0,0.2-0.1,0.4-0.2,0.7c-0.4,0.1-0.7,0.3-1.1,0.3C323.2,25.6,317.4,25.6,311.2,25.5z"/>
		<path d="M115.1,62c-6,0-12.3-0.2-18-0.2c-0.4,0-0.7,0-1.3-0.1c-0.1-0.5-0.4-1.3-0.7-2.4c-0.8-2.9-2.7-4.7-5.4-5.6
			c-3.1-1-6.4-1-9.6-0.1c-2.4,0.7-4.1,2.4-5.1,4.8c-0.4,0.9-0.5,1.5-0.7,2.2c-0.1,0.4-0.2,0.7-0.3,1.2c-0.3,0.1-0.6,0.2-0.9,0.2
			c-5.8-0.2-12.6-0.2-18.3-0.4c-0.3,0-0.6-0.1-0.9-0.2c-0.1-0.6-0.3-0.8-0.5-1.6c-1-3.5-3-5.8-6.3-6.8c-2-0.6-4.1-0.7-6.2-0.4
			c-2.9,0.4-5.2,2.1-6.9,4.6c-1,1.4-1.4,2.4-1.8,4.1c-0.2,0.5-3.9,0.2-5.5,0.1c-1.6,0-3.2,0.1-4.8,0c-1.6,0-3.4,0.2-5.1,0.2
			c-1.6,0-3.2-0.1-4.9-0.3c0-2.3,0.1-2.6,0.1-4.8c0.1-5.6,0.1-11.3,0.2-16.9c0-1,0-2,0.1-3c0.1-0.8,0.5-1.2,1.2-1.3
			c0.5-0.1,0.9-0.1,1.4-0.1c4.9,0,9.7,0,14.6,0.1c0.5,0,0.9,0.1,1.3,0.1c0.9,0.8,0.7,1.9,0.8,2.8c0,0.6-0.2,1.4,0.4,1.8
			c0.7,0.5,1.3-0.2,1.8-0.6c2.6-2.2,5.5-3.8,8.6-4.8c1.9-0.6,3.9-1,5.9-1.2c1.9-0.2,3.9-0.3,5.8-0.2c1.9,0.1,3.9,0.3,5.7,0.9
			c3.1,0.9,5.6,2.9,7.6,5.6c0.6,0.8,1,1.6,1.6,2.4c0.4,0.6,1,0.8,1.6,0.5c0.6-0.3,1.2-0.8,1.8-1.2c1.2-0.9,2.4-1.9,3.6-2.8
			c4.2-3,8.9-4.5,13.8-4.7c2.3-0.1,4.6-0.1,6.9,0c3.2,0.2,6.2,1.1,8.9,2.9c3,1.9,5.4,4.6,7,7.9c1.6,3.4,2.7,7,2.7,10.9
			c0,1.9,0.1,1.8,0.1,3.7C115.2,60.3,115.2,60.9,115.1,62z"/>
		<path d="M123.4,65.1c6.1-0.2,12.1-0.2,18.1,0c0.4,0,0.9,0.2,1.4,0.2c0,2,0.2,5.5,0.3,7.4c0.1,2.5,0.7,4.9,1.8,7.1
			c0.9,1.7,2.1,3.1,3.6,4.4c5.8,4.8,12.7,4.9,18.3,1.5c4.1-2.6,5.6-4.8,6.9-9.5c1-3.5,0.7-5.9,0.6-7.8c0-0.3-0.1-3.1-0.1-3.4
			c0.3-0.1,0.5-0.2,0.7-0.2c6,0,12.1-0.2,18.1-0.2c0.2,0,0.4,0.2,0.7,0.3c0,0.6,0.3,3.5,0.3,4.1c0,10.2,0,20.4,0.1,30.5
			c0,0.7,0,1.4-0.1,2.1c-0.1,1.1-0.4,1.4-1.6,1.5c-0.9,0.1-1.8,0.1-2.8,0.1c-3.6,0-7.2,0-10.9,0c-1.2,0-2.3-0.1-3.5-0.5
			c-0.1-0.4-0.3-0.9-0.5-1.4c-0.5-1.3-1.7-1.9-2.9-1.2c-0.7,0.3-1.3,0.8-2,1.2c-3.1,2.2-6.7,3.2-10.3,3.8c-2.6,0.4-5.4,0.3-8.1,0.3
			c-5.4,0.1-10.1-1.8-14.6-4.5c-3.7-2.2-6.3-5.4-8.6-8.9c-1.6-2.5-2.8-5.1-3.7-7.9c-0.3-1-0.7-2-1.1-3c-0.1-0.2-0.2-0.4-0.2-0.6
			c-0.4-4.4-0.9-10.2-0.4-14.6C123,65.7,123.1,65.6,123.4,65.1z"/>
		<path d="M248.6,64.8c-0.1,2.5,0,6.4,0.2,8.4c0.1,3.1,1,6.1,2.8,8.7c3,4.3,7.2,6.7,12.4,7c1.7,0.1,3.4,0.1,5.1-0.3
			c3.9-0.9,6.5-2.6,8.6-5.9c1.5-2.4,2.6-4.8,2.8-8.1c0.1-1.9,0.3-4,0.3-5.9c0-0.8-0.4-2.7-0.1-3.6c0.2-0.1,0.5-0.2,0.8-0.2
			c5.7-0.1,11.4-0.1,17.1-0.1c0.3,0,0.6,0.2,0.9,0.3c0.4,2.7,0.8,6.6,0.5,9.3c-0.2,2.5-0.6,4.9-1.3,7.3c-3.2,9.9-9.7,16.6-19.3,20.4
			c-4,1.6-8.3,2.3-12.6,2.8c-5.3,0.6-10.4-0.2-15.5-1.6c-2.1-0.6-4.1-1.5-5.9-2.6c-2.1-1.4-4.2-2.6-6.1-4.2
			c-1.4-1.2-2.6-2.7-3.6-4.2c-3.7-5.5-5.8-11.5-6-18.2c0-1.2-0.1-2.5-0.1-3.7c0-0.7,0.1-3.8,0.2-4.5c0.1-0.5,0.5-0.8,1-0.9
			c0.4-0.1,0.8-0.1,1.1-0.1c5.1-0.1,10.2-0.1,15.3-0.2C247.5,64.7,248,64.8,248.6,64.8z"/>
		<path d="M173.9,40.4c1.1-1.4,0.5-3.1,1.3-4.6c0.4-0.1,0.9-0.2,1.3-0.2c4.8-0.1,9.6-0.1,14.3-0.2c0.9,0,1.8-0.1,2.7,0.5
			c0.1,0.4,0.2,0.9,0.2,1.3c0.1,8.5,0.4,15.6,0.3,24.2c-0.4,0.1-0.7,0.2-1,0.3c-5.9,0.1-11.5-0.2-17.4-0.1c-0.3,0-1.9,0.2-2-0.1
			c0-0.1-0.2-0.4-0.2-0.5c-2.2-5.9-6.8-9.3-13.4-9.5c-1.6,0-3.3,0-4.8,0.3c-5.6,1.2-9.5,4.5-11.6,9.9c-0.2,0.4-4.2,0-6.4,0
			c-2.2,0-4.9,0.1-7,0c-1.8,0-5.3-0.1-6.6-0.4c-0.3-0.1-0.3-0.2-0.3-0.3c0-0.3,0.1-0.6,0.1-0.9c0.5-3.5,1.6-6.7,3.1-9.9
			c1.4-2.9,3.1-5.5,5.2-7.9c5.6-6.2,12.7-9,21-8.8c1.3,0,2.6,0.2,3.9,0.2c3.8,0.1,7.3,1.1,10.7,2.6c1.5,0.6,2.8,1.5,4.1,2.5
			C172.1,39.6,172.7,40.4,173.9,40.4z"/>
		<path d="M338.8,64.4c6.1-0.2,12.2-0.1,18.2,0c0.4,0,0.9,0.1,1.4,0.2c-0.1,2.1-0.2,5.4-0.1,7.5c0.3,6.4,4.7,10.6,6.2,11.9
			c5.8,4.8,12.5,4.1,17.5,1c4.1-2.6,7.3-7.5,7.6-12c0.3-3.7,0.3-5.6,0.2-7.5c0-0.3-0.1-0.8-0.1-1.1c0.3-0.1,0.6-0.2,0.8-0.2
			c6,0,12,0,18,0c0.2,0,0.4,0.2,0.7,0.3c0,0.6,0.1,1,0.1,1.6c0.1,10.2,0.1,22.4,0.2,32.6c0,0.7,0.1,2.4,0,3.1
			c-0.1,1.1-0.4,1.4-1.6,1.5c-0.9,0.1-1.8,0.1-2.8,0.1c-3.6,0-7.2,0-10.9,0.1c-1.2,0-2.3-0.1-3.5-0.5c-0.1-0.4-0.4-2-0.5-2.5
			c-0.5-1.3-0.6-2.1-1.9-1.5c-0.7,0.4-2.3,1.2-2.9,1.7c-3.5,1.9-6.7,3.1-10.4,3.7c-2.6,0.4-5.4,0.3-8.1,0.4
			c-5.4,0.1-10.1-1.7-14.6-4.4c-3.7-2.2-6.4-5.3-8.7-8.9c-1.6-2.5-2.9-5.1-3.8-7.9c-0.4-1.2-0.9-3.7-1.2-5.1
			c-0.4-4.4-0.8-9.1-0.3-13.5C338.4,64.9,338.5,64.8,338.8,64.4z"/>
		<path d="M389.5,39.8c0.7-1.4-0.3-3.2,0.5-4.7c0.4-0.1,1.3-0.1,1.7-0.1c4.8-0.1,9.6-0.1,14.3-0.2c0.9,0,1.8-0.1,2.7,0.5
			c0.1,0.4,0.2,0.9,0.2,1.3c0.1,8.5,0.4,15.4,0.2,24c-0.4,0.1-0.7,0.2-1,0.3c-5.9,0.1-12.1,0-18.1,0.1c-0.3,0-0.9-0.1-1.3-0.1
			c-0.2-0.7-0.1,0-0.3-0.7c-1.9-5.4-6.7-9-13.2-9.2c-1.6,0-3.3,0-4.8,0.3c-5.3,1.1-9,4.1-11.2,8.9c-0.1,0.3-0.1,0.3-0.3,0.8
			c-2.2,0.4-3.8,0.1-6.1,0.1c-2.2,0-4.9,0-7.1,0c-2.2,0-5.1,0.3-7.3-0.1c-0.2-1.1,0.1-1.2,0.2-2.1c0.5-3.3,1.4-5.9,2.9-9.1
			c1.4-2.9,3.1-5.5,5.2-7.9c5.6-6.2,12.7-9,21-8.8c1.3,0,2.6,0.2,3.9,0.2c3.8,0.1,7.3,1.1,10.7,2.6c1.5,0.6,2.8,1.5,4.1,2.5
			C387.3,38.9,388.3,39.7,389.5,39.8z"/>
		<path d="M299,61c-0.3,0.3-1,0.2-1.4,0.3c-1.9,0.2-15.2,0.3-17.8,0.3c-0.2-0.4-0.1-0.3-0.3-0.8c-0.4-1.1-0.4-1.2-0.9-2.3
			c-0.4-1-1-1.9-1.9-2.6c-0.2-0.2-0.5-0.4-0.7-0.6c-4.5-5.4-14.3-6.1-20.6-1.8c-2.5,1.8-4.3,4.1-5.5,6.9c-0.1,0.3-0.1,0.3-0.3,0.6
			c-0.3,0.8-2.8,0.5-4.4,0.5c-1.5,0.1-3.9,0.1-5.4,0.2c-1.6,0.1-3.4,0.1-5,0.1c-1.5,0-3.9,0.2-4.9,0.1c-0.2-0.1-0.1-0.3-0.1-0.7
			c0.9-5.4,3.5-10.4,7-14.7c2.9-3.5,6.5-6.3,10.8-8.2c6.5-2.8,13.3-3.8,20.3-3.1c4.3,0.4,8.6,1.1,12.6,2.8
			c8.5,3.5,14.5,9.5,17.4,18.3c0.6,1.7,0.6,1.9,0.9,3.6C298.9,60.2,299,60.6,299,61z"/>
		<path d="M202.4,11c2.8-0.3,17.2,0,19,0.4c0.1,0.3,0.2,0.7,0.2,1c0.1,2.9,0.3,5.7,0.1,8.6c-0.6,12.9-0.1,23.1-0.1,35.9
			c0,1.5,0,3.1,0,4.7c-0.6,0.1-1.2,0.3-1.7,0.3c-5.5,0-10.9-0.1-16.4-0.1c-0.2,0-0.4-0.1-0.7-0.2c-0.5-0.9-0.4-1.8-0.4-2.7
			c0-4-0.1-5.3-0.1-9.3c0-11.9-0.1-23.7-0.1-35.6C202.2,13,202.2,12.1,202.4,11z"/>
		<path d="M300.6,88.1c0-0.1,0.1-0.1,0.2-0.1c1.1-0.2,1.5-0.1,2.8-0.1c4.3,0,7.3-3.4,7.5-5.7c0.2-1,0.3-2,0.3-3
			c0-2.8-0.1-8.1-0.1-11c0-0.9-0.1-1.8,0.3-2.8c0.3-0.1,0.6-0.2,0.9-0.2c5.5-0.2,10.9-0.5,16.4-0.7c0.5,0,0.9,0.1,1.5,0.1
			c0.1,0.5,0.2,0.9,0.2,1.4c0.1,5.1,0,11.8,0,16.9c0,2.9-0.3,4-0.9,6.9c-0.4,2.2-2.7,5.6-3.9,7.5c-1.5,2.3-4.9,4.7-7.5,5.6
			c-3.4,1.1-4,1.7-9.6,1.5c-0.8-0.1-3.1,0.2-3.9,0.1c-1.2-0.1-2.4,0.3-3.4-0.2c-0.8-0.3-0.5-2.3-0.6-3.6c0-2.9-0.2-5.8-0.2-8.8
			C300.4,90,300.3,88.7,300.6,88.1z"/>
		<path d="M73.7,105c-0.4,0.1-0.8,0.3-1.2,0.3c-5.7,0-11.4,0-17.1,0c-0.3,0-0.6-0.2-1-0.3c0-0.5-0.1-0.9-0.1-1.4
			c-0.1-8.6-0.2-17.3-0.2-25.9c0-2.9,0-8.2,0.1-11.1c0-0.4,0.1-0.9,0.2-1.2c0.6-0.7,1.4-0.6,2-0.6c4.2,0,8.5-0.1,12.7-0.1
			c1.1,0,2.2,0,3.2,0.1c0.9,0.1,1.2,0.4,1.3,1.3c0.1,1.5,0.1,5.4,0.1,6.9c0.1,8.1,0.1,16.2,0.2,24.3c0,2,0,4,0,6
			C73.8,103.9,73.7,104.4,73.7,105z"/>
		<path d="M31.7,65c0.1,1,0,1.7-0.1,2.3c0,6.9,0,15.5-0.1,22.4c0,4.2-0.1,8.5-0.2,12.7c0,1.9-0.2,2.1-2.1,2.2c-1,0.1-2,0.1-3,0
			c-4-0.1-8-0.2-12-0.2c-0.5,0-1,0-1.4-0.1c-0.3-0.1-0.7-0.5-0.7-0.8c-0.1-0.6-0.1-1.2-0.1-1.8c0-8.9,0.1-17.9,0.1-26.8
			c0-2.6,0-7.1,0.1-9.7c0-0.2,0.1-0.4,0.2-0.8c3.1-0.3,6.3,0.2,9.4,0.3C24.9,64.9,28.2,64.9,31.7,65z"/>
		<path d="M221.7,65.1c0.5,0.8,0.3,1.6,0.3,2.4c0,7.6,0.3,17.9,0.3,25.5c0,2.9,0,5.9-0.1,8.8c0,0.8,0,1.5-0.1,2.3
			c-0.1,0.8-0.4,1-1.2,1.1c-0.2,0-0.5,0-0.7,0c-5.1,0-10.2,0-15.3,0c-0.5,0-1.1-0.1-1.5-0.2c-0.7-0.8-0.5-1.7-0.5-2.5
			c0-5.2,0-10.5,0.1-15.7c0-5.5-0.3-13.7-0.3-19.2c0-0.8,0-1.7,0.1-2.6c0.6-0.1,1-0.2,1.4-0.2c5.6,0.1,11.3,0.1,16.9,0.2
			C221.3,65,221.4,65.1,221.7,65.1z"/>
		<path d="M96.5,65.1c0.7-0.1,1.1-0.2,1.4-0.2c5.5,0.1,10.9,0.3,16.4,0.5c0.3,0,0.6,0.1,1,0.2c0.1,0.5,0.2,1.1,0.1,1.6
			c-0.1,6.3,0,14.3-0.1,20.7c-0.1,4.9-0.2,9.7-0.2,14.6c0,0.8,0.1,1.6-0.4,2.3c-1,0.3-2.2,0.5-3.3,0.4c-4.3-0.1-8.6-0.2-12.9-0.4
			c-0.7,0-1.4,0.1-2.1-0.6c0-1.2,0-2.6,0-4c0-3.4,0.2-6.8,0.2-10.2c-0.1-4.4-0.2-8.8-0.1-13.2c0.1-2.5,0-5.1,0-7.6
			C96.5,68.5,96.4,66,96.5,65.1z"/>
		<path d="M330,31c0.1,1.7,0.2,3.1,0.2,4.5c0,8.5-0.1,15.5-0.1,24c0,1.1,0.1,0.7-0.6,1.8c-0.6,0.1-1.2,0.1-1.8,0.2
			c-4.2,0.1-8.5,0.2-12.7,0.3c-0.8,0-1.7,0-2.5,0c-1.3-0.1-1.6-0.4-1.6-1.7c0-2.4,0-3.4,0-5.7c0-7.4,0.1-13.3,0.1-20.7
			c0-0.8-0.1-1.5,0.3-2.4c2-0.4,4.1-0.1,6.2-0.2c2.1,0,4.2,0,6.2,0C325.7,30.9,327.7,30.9,330,31z"/>
		<path d="M82.2,61c0.1,0,0.1,0,0.2-0.1c0,0.1,0,0.2,0,0.2c-0.1,0-0.1,0-0.2,0C82.2,61.1,82.2,61.1,82.2,61z"/>
	</g>
	<g>
		<path d="M462.3,96.7c-6.1-2.2-9.8-4.7-12.6-7.2c-1.5-1.4-2.6-3.3-2.9-5.6c0-0.7,0.1-1.5,0.3-2.2c1.7-4.8,9.3-8.5,14-10.8
			c0.5-0.2,0.9-0.4,1.3-0.6c1.1-0.5,2.3-1.1,3.5-1.6c0.5-0.2,1-0.5,1.6-0.7c2.8-1.2,4.9-2.2,5.1-2.9c0.1-0.2,0.1-0.3,0-0.4
			c-0.4-0.6-2.5-0.3-13.2-0.5l-0.2,0c-2.6,0-7.7,0-13.4,0c-5.1,0-11.1,0-15.9,0.1c0,0.1-0.1,0-0.1,0.1c-0.2,1.5-0.2,2.7-0.2,4.3
			c0,4.9,0.9,9.6,2.7,13.9c0.4,1,0.8,2,1.3,2.9c2.8,6,7.6,10.8,12.9,14.3c0.8,0.5,1.5,1,2.3,1.4c6.9,3.6,15,5.5,22.9,4.5
			c0.8-0.1,1.5-0.2,2.3-0.4c0.8-0.1,1.5-0.3,2.3-0.5c1.6-0.4,3.2-0.9,4.8-1.6l-0.3-0.1c-1.8-0.5-3.8-1.2-5.7-1.8
			c-0.7-0.2-1.3-0.4-2-0.7c-2.8-1-5-1.5-8.5-3C463.5,97.1,462.7,96.8,462.3,96.7z"/>
		<path d="M497.6,84.4c-2.4,0-4.7,0-7.1,0c-0.1,0-0.3,0-0.5-0.1c1.8-2.3,3.3-3.7,5.1-6c1.5-2.3,3.3-4.7,4.2-7.7
			c-2.6-0.1-5,0.3-7.7,0.1c3.8-3.3,5.8-7,7.8-10.9c-2,0-3.8,0-5.6,0c0,0-0.1,0-0.1,0c0,0,0,0,0,0c0,0,0,0-0.1-0.1
			c1.6-1.6,3.1-3.9,4.2-6.3c0.6-1.1,1.1-2.3,1.5-3.4c-0.6-1.1-1.4-2.2-2.1-3.3c-1.2-1.7-2.6-3.3-4.1-4.8c-0.4-0.4-0.8-0.8-1.2-1.1
			c-6.4-6.8-16.3-9.5-25-9.6c-0.7,0-1.4,0-2.1,0.1c-3.4,0.2-6.7,0.8-9.8,1.9c-0.7,0.2-1.5,0.5-2.2,0.8c-9.9,3.7-17.1,11.9-20.5,20.5
			c-0.2,0.5-0.4,1.1-0.6,1.6c-0.4,1.1-0.7,2.2-1,3.3c-0.1,0.2-0.2,1-0.2,1.2c0.4,0,0.8,0,1.2,0c5.5,0,12.1,0,17.9,0
			c5.4,0.1,9.8-0.1,12.6,0.1c0.3,0,0.9,0,1.3,0c5.7,0.2,11.8,0.4,13.5,2.3c0.3,0.4,0.5,0.8,0.5,1.3c-0.1,2.2-3.2,3.6-7.3,5.7l-1,0.5
			c-3.2,1.6-13.1,6.4-12.6,10.3c0.5,4,5.7,6,9.5,7.5c2.1,0.8,10.2,2.9,18,4.7c3.3,0.8,6.5,1.5,9.2,2.1c3.1-3.1,5.6-6.6,7.5-10.6
			c-0.6,0-1.7,0-1.8-0.1C498.4,84.4,498,84.4,497.6,84.4z"/>
	</g>
</g>
</svg>
